<svg width="543" height="454" viewBox="0 0 543 454" fill="none" xmlns="http://www.w3.org/2000/svg">
<rect y="94.5" width="236" height="59" rx="29.5" fill="#141B21"/>
<rect width="236" height="59" rx="29.5" transform="matrix(1 0 0 -1 244 227.5)" fill="#141B21"/>
<rect x="81" y="163.5" width="236" height="59" rx="29.5" fill="#141B21"/>
<rect width="236" height="59" rx="29.5" transform="matrix(1 0 0 -1 307 110.5)" fill="#141B21"/>
<path d="M143.75 264.875V81.5C143.75 78.7981 144.823 76.2069 146.734 74.2964C148.644 72.3858 151.236 71.3125 153.938 71.3125H221.85C224.054 71.3125 226.199 72.0274 227.962 73.35L266 101.875H357.688C360.389 101.875 362.981 102.948 364.891 104.859C366.802 106.769 367.875 109.361 367.875 112.062V142.625" fill="#132F43"/>
<path d="M143.75 264.875V81.5C143.75 78.7981 144.823 76.2069 146.734 74.2964C148.644 72.3858 151.236 71.3125 153.938 71.3125H221.85C224.054 71.3125 226.199 72.0274 227.962 73.35L266 101.875H357.688C360.389 101.875 362.981 102.948 364.891 104.859C366.802 106.769 367.875 109.361 367.875 112.063V142.625" stroke="#2B80BD" stroke-width="5.62069" stroke-linecap="round" stroke-linejoin="round"/>
<path d="M143.75 264.875L182.182 149.591C182.859 147.562 184.156 145.798 185.891 144.548C187.625 143.297 189.709 142.625 191.848 142.625H398.437C400.052 142.625 401.643 143.008 403.08 143.744C404.517 144.479 405.759 145.546 406.703 146.856C407.647 148.165 408.266 149.68 408.509 151.276C408.753 152.872 408.613 154.503 408.103 156.034L371.81 264.875H143.75Z" fill="#1D5176" stroke="#2B80BD" stroke-width="5.62069" stroke-linecap="round" stroke-linejoin="round"/>
<path d="M257.882 180.642C257.882 183.769 254.902 186.407 251.088 186.407C247.274 186.407 244.293 183.769 244.293 180.642C244.293 177.515 247.274 174.877 251.088 174.877C254.902 174.877 257.882 177.515 257.882 180.642Z" fill="white" stroke="white" stroke-width="0.819095"/>
<path d="M323.504 180.642C323.504 183.769 320.524 186.407 316.71 186.407C312.896 186.407 309.915 183.769 309.915 180.642C309.915 177.515 312.896 174.877 316.71 174.877C320.524 174.877 323.504 177.515 323.504 180.642Z" fill="white" stroke="white" stroke-width="0.819095"/>
<circle cx="180.5" cy="30" r="17.5" fill="#141B21"/>
<circle cx="134.5" cy="51" r="9.5" fill="#141B21"/>
<circle cx="449.5" cy="155" r="9.5" fill="#141B21"/>
<path d="M248.327 218.612C267.353 210.568 308.413 203.33 320.446 238.736" stroke="white" stroke-width="4.09548" stroke-linecap="round"/>
<path d="M126.678 435.3V402H42.3034V378.15C54.4534 366.15 64.8034 348.075 73.3534 323.925C82.0534 299.775 87.0034 278.4 88.2034 259.8L117.678 263.625C117.228 274.725 115.053 288.225 111.153 304.125C107.403 319.275 102.453 333.75 96.3034 347.55C90.4534 361.35 84.3784 371.475 78.0784 377.925H126.678V343.05H157.278V377.925H180.453V402H157.278V435.3H126.678ZM212.91 385.35C201.21 371.25 195.36 351.6 195.36 326.4C195.36 301.2 201.21 281.55 212.91 267.45C224.76 253.35 242.385 246.3 265.785 246.3C289.185 246.3 306.735 253.35 318.435 267.45C330.135 281.55 335.985 301.2 335.985 326.4C335.985 351.6 330.06 371.25 318.21 385.35C306.51 399.3 288.96 406.275 265.56 406.275C242.16 406.275 224.61 399.3 212.91 385.35ZM265.56 378.375C288.21 378.375 299.535 361.05 299.535 326.4C299.535 291.75 288.21 274.425 265.56 274.425C242.91 274.425 231.585 291.75 231.585 326.4C231.585 361.05 242.91 378.375 265.56 378.375ZM434.515 435.3V402H350.14V378.15C362.29 366.15 372.64 348.075 381.19 323.925C389.89 299.775 394.84 278.4 396.04 259.8L425.515 263.625C425.065 274.725 422.89 288.225 418.99 304.125C415.24 319.275 410.29 333.75 404.14 347.55C398.29 361.35 392.215 371.475 385.915 377.925H434.515V343.05H465.115V377.925H488.29V402H465.115V435.3H434.515Z" fill="white"/>
</svg>
