<svg width="461" height="327" viewBox="0 0 461 327" fill="none" xmlns="http://www.w3.org/2000/svg">
<path d="M222.279 142.612L234.409 179.712C235.269 182.352 238.519 183.292 240.659 181.522L276.879 151.622C276.879 151.622 238.389 136.602 238.389 137.422C238.389 138.242 222.279 142.612 222.279 142.612Z" fill="#228AC0"/>
<path d="M317.849 71.312C294.189 80.672 217.839 111.962 188.939 123.812C185.119 125.382 185.349 130.852 189.279 132.102L222.279 142.612L234.369 179.592C234.859 181.082 236.079 182.042 237.449 182.292C238.559 182.502 240.199 152.342 240.199 152.342C240.199 152.342 274.889 178.072 291.339 190.212C295.389 193.202 301.179 190.952 302.139 186.012C307.039 160.752 319.299 97.592 323.489 75.992C324.119 72.742 320.919 70.082 317.849 71.302V71.312Z" fill="url(#paint0_linear_355_829)"/>
<path d="M237.45 182.302C238.56 182.512 240.2 152.352 240.2 152.352L297.19 98.8217C297.58 98.4617 297.11 97.8517 296.66 98.1217L222.27 142.612L234.36 179.592C234.85 181.082 236.07 182.042 237.44 182.292L237.45 182.302Z" fill="#95D5FF"/>
<path d="M40 254.922C79.14 254.802 131.17 232.732 141.62 190.352C145.83 173.252 142.09 154.922 128.53 142.442C111.4 126.672 92.59 141.082 97.22 163.102C104.82 199.272 149 226.052 182.57 226.432C201.97 226.652 220.18 217.342 227.16 198.332" stroke="url(#paint1_linear_355_829)" stroke-width="2" stroke-miterlimit="10"/>
<path d="M212.895 269.395C212.895 268.073 213.967 267.002 215.29 267.002H248.962C250.201 246.268 267.427 229.834 288.482 229.834C304.19 229.834 317.754 238.963 324.16 252.21C329.047 246.463 336.331 242.803 344.463 242.803C347.443 242.803 350.298 243.318 352.985 244.223C361.383 230.878 376.227 222 393.174 222C418.575 222 439.31 241.941 440.549 267.002H440.605C441.928 267.002 443 268.073 443 269.395C443 270.717 441.928 271.789 440.605 271.789H215.29C213.967 271.789 212.895 270.717 212.895 269.395Z" fill="#2C2C2C"/>
<path d="M225.957 288H181.395C180.072 288 179 286.929 179 285.607C179 284.285 180.072 283.213 181.395 283.213H225.957C227.28 283.213 228.352 284.285 228.352 285.607C228.352 286.929 227.28 288 225.957 288Z" fill="#2C2C2C"/>
<path d="M144.884 70.3605C146.884 64.7805 143.784 57.8906 138.274 55.6905C132.764 53.4906 125.774 56.3505 123.384 61.7805C115.634 47.8505 98.2844 38.8605 83.4944 39.0305C80.3644 39.0705 77.1544 38.7006 74.2144 39.7706C69.7244 41.4006 66.4744 45.5305 64.8744 50.0305C63.2744 54.5305 63.1144 59.4105 63.2344 64.1905C57.2944 60.1405 50.0444 58.0406 42.8544 58.2706C31.6144 58.6406 19.9644 66.1206 18.1744 77.2206C17.6244 80.6006 18.3844 84.1106 20.3244 86.9206C32.1944 104.111 140.464 98.1706 167.174 91.7306C171.574 90.6706 176.504 88.8906 178.104 84.6606C179.404 81.2306 177.894 77.2006 175.204 74.6906C172.524 72.1906 168.884 70.9605 165.294 70.2205C158.524 68.8305 151.444 68.9405 144.714 70.5305" fill="#2C2C2C"/>
<defs>
<linearGradient id="paint0_linear_355_829" x1="7054.71" y1="71" x2="7054.71" y2="12126.8" gradientUnits="userSpaceOnUse">
<stop stop-color="#2AABEE"/>
<stop offset="1" stop-color="#229ED9"/>
</linearGradient>
<linearGradient id="paint1_linear_355_829" x1="9398" y1="135.785" x2="9398" y2="12049.5" gradientUnits="userSpaceOnUse">
<stop stop-color="#2AABEE"/>
<stop offset="1" stop-color="#229ED9"/>
</linearGradient>
</defs>
</svg>
