<svg width="295" height="179" viewBox="0 0 295 179" fill="none" xmlns="http://www.w3.org/2000/svg">
<path d="M142.655 74.7126L150.269 101.156C150.809 103.038 152.848 103.708 154.192 102.446L176.925 81.1346C176.925 81.1346 152.767 70.4289 152.767 71.0133C152.767 71.5978 142.655 74.7126 142.655 74.7126Z" fill="#228AC0"/>
<path d="M202.64 23.8923C187.79 30.5638 139.868 52.8662 121.729 61.3125C119.331 62.4315 119.475 66.3304 121.942 67.2213L142.655 74.7125L150.243 101.071C150.551 102.133 151.317 102.817 152.176 102.995C152.873 103.145 153.903 81.6477 153.903 81.6477C153.903 81.6477 175.676 99.9872 186.001 108.64C188.543 110.771 192.177 109.168 192.78 105.647C195.855 87.6421 203.55 42.6238 206.18 27.228C206.576 24.9115 204.567 23.0156 202.64 23.8852V23.8923Z" fill="url(#paint0_linear_732_3081)"/>
<path d="M152.176 103.002C152.873 103.152 153.902 81.6551 153.902 81.6551L189.673 43.5008C189.917 43.2442 189.622 42.8094 189.34 43.0018L142.648 74.7128L150.237 101.071C150.544 102.133 151.31 102.817 152.17 102.995L152.176 103.002Z" fill="#95D5FF"/>
<path d="M28.2451 154.763C52.8117 154.678 85.4688 138.947 92.0279 108.74C94.6703 96.5517 92.3229 83.4867 83.8118 74.5914C73.06 63.3511 61.2537 73.6221 64.1598 89.3172C68.93 115.098 96.66 134.186 117.731 134.457C129.907 134.613 141.337 127.978 145.718 114.428" stroke="url(#paint1_linear_732_3081)" stroke-width="1.42553" stroke-miterlimit="10"/>
<path d="M136.765 165.079C136.765 164.136 137.438 163.373 138.268 163.373H159.402C160.18 148.594 170.992 136.881 184.208 136.881C194.067 136.881 202.58 143.387 206.601 152.83C209.669 148.733 214.24 146.125 219.345 146.125C221.215 146.125 223.007 146.492 224.694 147.136C229.964 137.625 239.282 131.297 249.919 131.297C265.862 131.297 278.876 145.51 279.654 163.373H279.689C280.519 163.373 281.192 164.136 281.192 165.079C281.192 166.021 280.519 166.785 279.689 166.785H138.268C137.438 166.785 136.765 166.021 136.765 165.079Z" fill="#E1E1E1"/>
<path d="M144.963 178.339H116.994C116.163 178.339 115.49 177.576 115.49 176.633C115.49 175.691 116.163 174.928 116.994 174.928H144.963C145.794 174.928 146.467 175.691 146.467 176.633C146.467 177.576 145.794 178.339 144.963 178.339Z" fill="#E1E1E1"/>
<path d="M94.0767 23.2141C95.332 19.2368 93.3863 14.3259 89.9279 12.7578C86.4695 11.1897 82.0821 13.2282 80.582 17.0985C75.7177 7.1697 64.8278 0.761931 55.5447 0.883101C53.5802 0.911612 51.5653 0.647892 49.72 1.41055C46.9018 2.57236 44.8619 5.51608 43.8577 8.72353C42.8534 11.931 42.753 15.4093 42.8283 18.8163C39.1 15.9296 34.5495 14.4328 30.0366 14.5967C22.9817 14.8604 15.6695 20.1919 14.546 28.1036C14.2008 30.5128 14.6778 33.0146 15.8954 35.0175C23.3458 47.2699 91.3025 43.0361 108.067 38.4459C110.829 37.6904 113.923 36.4216 114.928 33.4066C115.744 30.9618 114.796 28.0894 113.107 26.3003C111.425 24.5184 109.141 23.6417 106.887 23.1143C102.638 22.1235 98.1942 22.2019 93.97 23.3352" fill="#E1E1E1"/>
<defs>
<linearGradient id="paint0_linear_732_3081" x1="4431.1" y1="23.6699" x2="4431.1" y2="8616.63" gradientUnits="userSpaceOnUse">
<stop stop-color="#2AABEE"/>
<stop offset="1" stop-color="#229ED9"/>
</linearGradient>
<linearGradient id="paint1_linear_732_3081" x1="5901.88" y1="69.8467" x2="5901.88" y2="8561.51" gradientUnits="userSpaceOnUse">
<stop stop-color="#2AABEE"/>
<stop offset="1" stop-color="#229ED9"/>
</linearGradient>
</defs>
</svg>
