<svg width="461" height="388" viewBox="0 0 461 388" fill="none" xmlns="http://www.w3.org/2000/svg">
<path d="M186.624 145.544C171.945 179.742 133.197 194.431 102.837 191.927C94.5483 191.244 77.87 189.867 64.8473 177.592C39.8381 154.019 43.69 104.745 67.6308 75.7343C70.7139 71.9983 92.0548 46.9682 125.31 47.3031C149.657 47.5484 166.747 61.2576 168.825 62.965C171.45 65.1223 177.24 70.2493 182.458 78.3827C194.719 97.4937 195.797 124.173 186.624 145.543V145.544Z" fill="#E1E1E1"/>
<path d="M249.174 231.655C263.853 197.457 302.601 182.768 332.96 185.272C341.25 185.956 357.928 187.332 370.951 199.607C395.96 223.18 392.108 272.455 368.167 301.465C365.084 305.201 343.743 330.231 310.488 329.896C286.14 329.651 269.051 315.942 266.973 314.234C264.348 312.077 258.558 306.95 253.34 298.817C241.079 279.706 240.001 253.027 249.174 231.656V231.655Z" fill="#E1E1E1"/>
<path d="M173.476 239.256C179.22 225.874 194.382 220.126 206.262 221.106C209.506 221.373 216.032 221.912 221.128 226.715C230.914 235.94 229.407 255.221 220.038 266.573C218.832 268.035 210.481 277.829 197.468 277.698C187.941 277.602 181.254 272.237 180.441 271.569C179.413 270.725 177.148 268.719 175.106 265.536C170.308 258.058 169.887 247.619 173.476 239.256V239.256Z" fill="#E1E1E1"/>
<g filter="url(#filter0_d_828_302)">
<path d="M340.299 269.953H218.174C201.398 269.953 187.679 256.234 187.679 239.458V223.915C187.679 207.139 201.398 193.42 218.174 193.42H309.804C326.58 193.42 340.299 207.139 340.299 223.915V269.953Z" fill="#2AABEE"/>
<path d="M322.413 219.489H210.287C209.686 219.489 209.209 219.002 209.209 218.412C209.209 217.821 209.696 217.334 210.287 217.334H322.413C323.014 217.334 323.49 217.821 323.49 218.412C323.49 219.002 323.003 219.489 322.413 219.489Z" fill="white"/>
<path d="M322.413 234.441H210.287C209.686 234.441 209.209 233.954 209.209 233.364C209.209 232.773 209.696 232.286 210.287 232.286H322.413C323.014 232.286 323.49 232.773 323.49 233.364C323.49 233.954 323.003 234.441 322.413 234.441Z" fill="white"/>
<path d="M322.413 249.394H210.287C209.686 249.394 209.209 248.907 209.209 248.316C209.209 247.725 209.696 247.238 210.287 247.238H322.413C323.014 247.238 323.49 247.725 323.49 248.316C323.49 248.907 323.003 249.394 322.413 249.394Z" fill="white"/>
</g>
<g filter="url(#filter1_d_828_302)">
<path d="M84.0604 84.6216H206.186C222.962 84.6216 236.681 98.3407 236.681 115.117V145.166C236.681 161.942 222.962 175.661 206.186 175.661H114.555C97.7796 175.661 84.0604 161.942 84.0604 145.166V84.6216Z" fill="#2AABEE"/>
<path d="M101.946 150.035H214.072C214.673 150.035 215.149 150.522 215.149 151.113C215.149 151.703 214.662 152.19 214.072 152.19H101.946C101.345 152.19 100.868 151.703 100.868 151.113C100.868 150.522 101.355 150.035 101.946 150.035Z" fill="white"/>
<path d="M101.946 135.084H214.072C214.673 135.084 215.149 135.571 215.149 136.162C215.149 136.752 214.662 137.239 214.072 137.239H101.946C101.345 137.239 100.868 136.752 100.868 136.162C100.868 135.571 101.355 135.084 101.946 135.084Z" fill="white"/>
<path d="M101.946 120.131H214.072C214.673 120.131 215.149 120.618 215.149 121.209C215.149 121.799 214.662 122.286 214.072 122.286H101.946C101.345 122.286 100.868 121.799 100.868 121.209C100.868 120.618 101.355 120.131 101.946 120.131Z" fill="white"/>
<path d="M101.946 105.179H214.072C214.673 105.179 215.149 105.666 215.149 106.256C215.149 106.847 214.662 107.334 214.072 107.334H101.946C101.345 107.334 100.868 106.847 100.868 106.256C100.868 105.666 101.355 105.179 101.946 105.179Z" fill="white"/>
</g>
<defs>
<filter id="filter0_d_828_302" x="185.606" y="191.348" width="160.91" height="84.8227" filterUnits="userSpaceOnUse" color-interpolation-filters="sRGB">
<feFlood flood-opacity="0" result="BackgroundImageFix"/>
<feColorMatrix in="SourceAlpha" type="matrix" values="0 0 0 0 0 0 0 0 0 0 0 0 0 0 0 0 0 0 127 0" result="hardAlpha"/>
<feOffset dx="2.07238" dy="2.07238"/>
<feGaussianBlur stdDeviation="2.07238"/>
<feColorMatrix type="matrix" values="0 0 0 0 0 0 0 0 0 0 0 0 0 0 0 0 0 0 0.1 0"/>
<feBlend mode="normal" in2="BackgroundImageFix" result="effect1_dropShadow_828_302"/>
<feBlend mode="normal" in="SourceGraphic" in2="effect1_dropShadow_828_302" result="shape"/>
</filter>
<filter id="filter1_d_828_302" x="81.9882" y="82.5487" width="160.91" height="99.3296" filterUnits="userSpaceOnUse" color-interpolation-filters="sRGB">
<feFlood flood-opacity="0" result="BackgroundImageFix"/>
<feColorMatrix in="SourceAlpha" type="matrix" values="0 0 0 0 0 0 0 0 0 0 0 0 0 0 0 0 0 0 127 0" result="hardAlpha"/>
<feOffset dx="2.07238" dy="2.07238"/>
<feGaussianBlur stdDeviation="2.07238"/>
<feColorMatrix type="matrix" values="0 0 0 0 0 0 0 0 0 0 0 0 0 0 0 0 0 0 0.1 0"/>
<feBlend mode="normal" in2="BackgroundImageFix" result="effect1_dropShadow_828_302"/>
<feBlend mode="normal" in="SourceGraphic" in2="effect1_dropShadow_828_302" result="shape"/>
</filter>
</defs>
</svg>
