<svg width="416" height="1188" viewBox="0 0 416 1188" fill="none" xmlns="http://www.w3.org/2000/svg">
<path d="M-39.5276 788.37L-46.5075 624.849L242.403 376.875" stroke="#27304E" stroke-opacity="0.28"/>
<path d="M-39.5276 788.37L-46.5075 624.849L242.403 376.875" stroke="#27304E" stroke-opacity="0.28"/>
<path d="M-39.5276 788.37L-46.5075 624.849L242.403 376.875" stroke="#27304E" stroke-opacity="0.28"/>
<path d="M109.054 853.651L-280.535 851.226" stroke="#27304E" stroke-opacity="0.28"/>
<path d="M109.054 853.651L-280.535 851.226" stroke="#27304E" stroke-opacity="0.28"/>
<path d="M109.054 853.651L-280.535 851.226" stroke="#27304E" stroke-opacity="0.28"/>
<path d="M240.963 375.537L-17.9579 250.235L-46.5054 624.847" stroke="#27304E" stroke-opacity="0.28"/>
<path d="M240.963 375.537L-17.9579 250.235L-46.5054 624.847" stroke="#27304E" stroke-opacity="0.28"/>
<path d="M240.963 375.537L-17.9579 250.235L-46.5054 624.847" stroke="#27304E" stroke-opacity="0.28"/>
<path d="M-190.947 1185.57L-39.5272 788.369L109.056 853.649M109.056 853.649L242.403 376.874L74.9033 18.6132L-341.213 192.133L109.056 853.649Z" stroke="#27304E" stroke-opacity="0.28"/>
<path d="M-190.947 1185.57L-39.5272 788.369L109.056 853.649M109.056 853.649L242.403 376.874L74.9033 18.6132L-341.213 192.133L109.056 853.649Z" stroke="#27304E" stroke-opacity="0.28"/>
<path d="M-190.947 1185.57L-39.5272 788.369L109.056 853.649M109.056 853.649L242.403 376.874L74.9033 18.6132L-341.213 192.133L109.056 853.649Z" stroke="#27304E" stroke-opacity="0.28"/>
</svg>
