<svg width="273" height="759" viewBox="0 0 273 759" fill="none" xmlns="http://www.w3.org/2000/svg">
<path d="M-17.9756 503.213L-22.4268 398.933L161.816 240.796" stroke="#27304E" stroke-opacity="0.28" stroke-width="0.637717"/>
<path d="M-17.9756 503.213L-22.4268 398.933L161.816 240.796" stroke="#27304E" stroke-opacity="0.28" stroke-width="0.637717"/>
<path d="M-17.9756 503.213L-22.4268 398.933L161.816 240.796" stroke="#27304E" stroke-opacity="0.28" stroke-width="0.637717"/>
<path d="M76.7778 544.843L-171.67 543.297" stroke="#27304E" stroke-opacity="0.28" stroke-width="0.637717"/>
<path d="M76.7778 544.843L-171.67 543.297" stroke="#27304E" stroke-opacity="0.28" stroke-width="0.637717"/>
<path d="M76.7778 544.843L-171.67 543.297" stroke="#27304E" stroke-opacity="0.28" stroke-width="0.637717"/>
<path d="M160.898 239.943L-4.22012 160.036L-22.4253 398.933" stroke="#27304E" stroke-opacity="0.28" stroke-width="0.637717"/>
<path d="M160.898 239.943L-4.22012 160.036L-22.4253 398.933" stroke="#27304E" stroke-opacity="0.28" stroke-width="0.637717"/>
<path d="M160.898 239.943L-4.22012 160.036L-22.4253 398.933" stroke="#27304E" stroke-opacity="0.28" stroke-width="0.637717"/>
<path d="M-114.538 756.513L-17.9752 503.213L76.7786 544.843M76.7786 544.843L161.817 240.795L54.9991 12.3266L-210.365 122.983L76.7786 544.843Z" stroke="#27304E" stroke-opacity="0.28" stroke-width="0.637717"/>
<path d="M-114.538 756.513L-17.9752 503.213L76.7786 544.843M76.7786 544.843L161.817 240.795L54.9991 12.3266L-210.365 122.983L76.7786 544.843Z" stroke="#27304E" stroke-opacity="0.28" stroke-width="0.637717"/>
<path d="M-114.538 756.513L-17.9752 503.213L76.7786 544.843M76.7786 544.843L161.817 240.795L54.9991 12.3266L-210.365 122.983L76.7786 544.843Z" stroke="#27304E" stroke-opacity="0.28" stroke-width="0.637717"/>
</svg>
