<svg width="580" height="1214" viewBox="0 0 580 1214" fill="none" xmlns="http://www.w3.org/2000/svg">
<path d="M473.982 413.199L495.336 575.47L229.388 847.925" stroke="#27304E" stroke-opacity="0.28"/>
<path d="M473.982 413.199L495.336 575.47L229.388 847.925" stroke="#27304E" stroke-opacity="0.28"/>
<path d="M473.982 413.199L495.336 575.47L229.388 847.925" stroke="#27304E" stroke-opacity="0.28"/>
<path d="M473.981 413.2L806.377 569.999" stroke="#27304E" stroke-opacity="0.28"/>
<path d="M473.981 413.2L806.377 569.999" stroke="#27304E" stroke-opacity="0.28"/>
<path d="M473.981 413.2L806.377 569.999" stroke="#27304E" stroke-opacity="0.28"/>
<path d="M320.227 361.259L708.516 329.362" stroke="#27304E" stroke-opacity="0.28"/>
<path d="M320.227 361.259L708.516 329.362" stroke="#27304E" stroke-opacity="0.28"/>
<path d="M320.227 361.259L708.516 329.362" stroke="#27304E" stroke-opacity="0.28"/>
<path d="M230.941 849.132L499.891 951.143L495.335 575.473" stroke="#27304E" stroke-opacity="0.28"/>
<path d="M230.941 849.132L499.891 951.143L495.335 575.473" stroke="#27304E" stroke-opacity="0.28"/>
<path d="M230.941 849.132L499.891 951.143L495.335 575.473" stroke="#27304E" stroke-opacity="0.28"/>
<path d="M499.891 951.192L677.521 1022.76" stroke="#27304E" stroke-opacity="0.28"/>
<path d="M499.891 951.192L677.521 1022.76" stroke="#27304E" stroke-opacity="0.28"/>
<path d="M499.891 951.192L677.521 1022.76" stroke="#27304E" stroke-opacity="0.28"/>
<path d="M589.831 4.20996L473.982 413.201L320.227 361.261M320.227 361.261L229.388 847.927L427.79 1190.04L827.008 980.55L320.227 361.261Z" stroke="#27304E" stroke-opacity="0.28"/>
<path d="M589.831 4.20996L473.982 413.201L320.227 361.261M320.227 361.261L229.388 847.927L427.79 1190.04L827.008 980.55L320.227 361.261Z" stroke="#27304E" stroke-opacity="0.28"/>
<path d="M589.831 4.20996L473.982 413.201L320.227 361.261M320.227 361.261L229.388 847.927L427.79 1190.04L827.008 980.55L320.227 361.261Z" stroke="#27304E" stroke-opacity="0.28"/>
</svg>
