<svg width="301" height="645" viewBox="0 0 301 645" fill="none" xmlns="http://www.w3.org/2000/svg">
<path d="M252.489 219.701L263.831 305.89L122.576 450.602" stroke="#27304E" stroke-opacity="0.28" stroke-width="0.53114"/>
<path d="M252.489 219.701L263.831 305.89L122.576 450.602" stroke="#27304E" stroke-opacity="0.28" stroke-width="0.53114"/>
<path d="M252.489 219.701L263.831 305.89L122.576 450.602" stroke="#27304E" stroke-opacity="0.28" stroke-width="0.53114"/>
<path d="M252.489 219.702L429.038 302.984" stroke="#27304E" stroke-opacity="0.28" stroke-width="0.53114"/>
<path d="M252.489 219.702L429.038 302.984" stroke="#27304E" stroke-opacity="0.28" stroke-width="0.53114"/>
<path d="M252.489 219.702L429.038 302.984" stroke="#27304E" stroke-opacity="0.28" stroke-width="0.53114"/>
<path d="M170.824 192.113L377.06 175.172" stroke="#27304E" stroke-opacity="0.28" stroke-width="0.53114"/>
<path d="M170.824 192.113L377.06 175.172" stroke="#27304E" stroke-opacity="0.28" stroke-width="0.53114"/>
<path d="M170.824 192.113L377.06 175.172" stroke="#27304E" stroke-opacity="0.28" stroke-width="0.53114"/>
<path d="M123.401 451.242L266.251 505.424L263.831 305.891" stroke="#27304E" stroke-opacity="0.28" stroke-width="0.53114"/>
<path d="M123.401 451.242L266.251 505.424L263.831 305.891" stroke="#27304E" stroke-opacity="0.28" stroke-width="0.53114"/>
<path d="M123.401 451.242L266.251 505.424L263.831 305.891" stroke="#27304E" stroke-opacity="0.28" stroke-width="0.53114"/>
<path d="M266.251 505.451L360.598 543.464" stroke="#27304E" stroke-opacity="0.28" stroke-width="0.53114"/>
<path d="M266.251 505.451L360.598 543.464" stroke="#27304E" stroke-opacity="0.28" stroke-width="0.53114"/>
<path d="M266.251 505.451L360.598 543.464" stroke="#27304E" stroke-opacity="0.28" stroke-width="0.53114"/>
<path d="M314.021 2.4707L252.489 219.702L170.824 192.115M170.824 192.115L122.576 450.603L227.955 632.315L439.995 521.044L170.824 192.115Z" stroke="#27304E" stroke-opacity="0.28" stroke-width="0.53114"/>
<path d="M314.021 2.4707L252.489 219.702L170.824 192.115M170.824 192.115L122.576 450.603L227.955 632.315L439.995 521.044L170.824 192.115Z" stroke="#27304E" stroke-opacity="0.28" stroke-width="0.53114"/>
<path d="M314.021 2.4707L252.489 219.702L170.824 192.115M170.824 192.115L122.576 450.603L227.955 632.315L439.995 521.044L170.824 192.115Z" stroke="#27304E" stroke-opacity="0.28" stroke-width="0.53114"/>
</svg>
