<svg width="26" height="26" viewBox="0 0 26 26" fill="none" xmlns="http://www.w3.org/2000/svg">
<g clip-path="url(#clip0_340_8770)">
<path opacity="0.2" d="M22.7185 4.28386C22.7577 4.14487 22.7591 3.99796 22.7226 3.85824C22.6861 3.71853 22.6131 3.59106 22.511 3.48895C22.4089 3.38685 22.2814 3.3138 22.1417 3.27732C22.002 3.24085 21.8551 3.24227 21.7161 3.28144L2.21608 9.1944C2.05688 9.23933 1.91519 9.33179 1.80994 9.45941C1.70469 9.58702 1.6409 9.74373 1.6271 9.90857C1.6133 10.0734 1.65014 10.2385 1.7327 10.3819C1.81527 10.5252 1.93962 10.64 2.08913 10.7107L10.9687 15.0312L15.2892 23.9098C15.36 24.0593 15.4747 24.1837 15.6181 24.2662C15.7614 24.3488 15.9265 24.3856 16.0914 24.3718C16.2562 24.358 16.4129 24.2942 16.5405 24.189C16.6682 24.0837 16.7606 23.942 16.8055 23.7828L22.7185 4.28386Z" fill="#5164A7"/>
<path d="M10.9688 15.0312L16.25 9.75" stroke="#5164A7" stroke-width="1.625" stroke-linecap="round" stroke-linejoin="round"/>
<path d="M22.7185 4.28386C22.7577 4.14487 22.7591 3.99796 22.7226 3.85824C22.6861 3.71853 22.6131 3.59106 22.511 3.48895C22.4089 3.38685 22.2814 3.3138 22.1417 3.27732C22.002 3.24085 21.8551 3.24227 21.7161 3.28144L2.21608 9.1944C2.05688 9.23933 1.91519 9.33179 1.80994 9.45941C1.70469 9.58702 1.6409 9.74373 1.6271 9.90857C1.6133 10.0734 1.65014 10.2385 1.7327 10.3819C1.81527 10.5252 1.93962 10.64 2.08913 10.7107L10.9687 15.0312L15.2892 23.9098C15.36 24.0593 15.4747 24.1837 15.6181 24.2662C15.7614 24.3488 15.9265 24.3856 16.0914 24.3718C16.2562 24.358 16.4129 24.2942 16.5405 24.189C16.6682 24.0837 16.7606 23.942 16.8055 23.7828L22.7185 4.28386Z" stroke="#5164A7" stroke-width="1.625" stroke-linecap="round" stroke-linejoin="round"/>
</g>
<defs>
<clipPath id="clip0_340_8770">
<rect width="26" height="26" fill="white"/>
</clipPath>
</defs>
</svg>
