<svg width="32" height="32" viewBox="0 0 32 32" fill="none" xmlns="http://www.w3.org/2000/svg">
<g clip-path="url(#clip0_272_2577)">
<path opacity="0.2" d="M27.0001 9.19075C25.5663 7.83325 23.1251 7.00075 21.0001 7.00075C19.1826 6.99653 17.4183 7.61403 16.0001 8.75075C14.6115 7.63736 12.8899 7.02124 11.1101 7.00075C6.5001 6.93825 2.8826 10.7883 3.0001 15.3995C3.05029 17.3763 3.49208 19.3235 4.29992 21.1284C5.10775 22.9333 6.26557 24.5601 7.70635 25.9145C8.44851 26.6139 9.43031 27.0026 10.4501 27.0007H21.4126C21.9571 27.003 22.4961 26.8931 22.9963 26.6781C23.4965 26.4631 23.9471 26.1474 24.3201 25.7507C26.3013 23.6257 27.0001 21.6008 27.0001 21.6008C24.9013 20.1595 24.0001 17.742 24.0001 15.0033C24.0001 12.7158 25.4601 10.652 27.0001 9.19325V9.19075Z" fill="#5164A7"/>
<path d="M27.0001 9.19075C25.5663 7.83325 23.1251 7.00075 21.0001 7.00075C19.1826 6.99653 17.4183 7.61403 16.0001 8.75075C14.6115 7.63736 12.8899 7.02124 11.1101 7.00075C6.5001 6.93825 2.8826 10.7883 3.0001 15.3995C3.05029 17.3763 3.49208 19.3235 4.29992 21.1284C5.10775 22.9333 6.26557 24.5601 7.70635 25.9145C8.44851 26.6139 9.4303 27.0026 10.4501 27.0007H21.4126C21.9571 27.003 22.4961 26.8931 22.9963 26.6781C23.4965 26.4631 23.9471 26.1474 24.3201 25.7507C26.3013 23.6257 27.0001 21.6008 27.0001 21.6008C24.9013 20.1595 24.0001 17.742 24.0001 15.0033C24.0001 12.7158 25.4601 10.652 27.0001 9.19325V9.19075Z" stroke="#5164A7" stroke-width="2" stroke-linecap="round" stroke-linejoin="round"/>
<path d="M21 1H20.875C19.9879 0.999553 19.1258 1.29403 18.4243 1.83711C17.7228 2.38018 17.2218 3.14104 17 4" stroke="#5164A7" stroke-width="2" stroke-linecap="round" stroke-linejoin="round"/>
</g>
<defs>
<clipPath id="clip0_272_2577">
<rect width="32" height="32" fill="white"/>
</clipPath>
</defs>
</svg>
