<svg width="26" height="26" viewBox="0 0 26 26" fill="none" xmlns="http://www.w3.org/2000/svg">
<g clip-path="url(#clip0_857_459)">
<path opacity="0.2" d="M21.9375 11.375V5.6875C21.9375 5.47201 21.8519 5.26535 21.6995 5.11298C21.5472 4.9606 21.3405 4.875 21.125 4.875H4.875C4.65951 4.875 4.45285 4.9606 4.30048 5.11298C4.1481 5.26535 4.0625 5.47201 4.0625 5.6875V11.375C4.0625 21.125 13 23.5625 13 23.5625C13 23.5625 21.9375 21.125 21.9375 11.375Z" fill="#A1B2ED"/>
<path d="M21.9375 11.375V5.6875C21.9375 5.47201 21.8519 5.26535 21.6995 5.11298C21.5472 4.9606 21.3405 4.875 21.125 4.875H4.875C4.65951 4.875 4.45285 4.9606 4.30048 5.11298C4.1481 5.26535 4.0625 5.47201 4.0625 5.6875V11.375C4.0625 21.125 13 23.5625 13 23.5625C13 23.5625 21.9375 21.125 21.9375 11.375Z" stroke="#A1B2ED" stroke-width="1.625" stroke-linecap="round" stroke-linejoin="round"/>
<path d="M8.9375 13.8125L11.375 16.25L17.0625 10.5625" stroke="#A1B2ED" stroke-width="1.625" stroke-linecap="round" stroke-linejoin="round"/>
</g>
<defs>
<clipPath id="clip0_857_459">
<rect width="26" height="26" fill="white"/>
</clipPath>
</defs>
</svg>
