<svg width="26" height="26" viewBox="0 0 26 26" fill="none" xmlns="http://www.w3.org/2000/svg">
<g clip-path="url(#clip0_354_20)">
<path opacity="0.2" d="M13 15.4375C13.862 15.4375 14.6886 15.0951 15.2981 14.4856C15.9076 13.8761 16.25 13.0495 16.25 12.1875H22.75V7.3125C22.75 6.88152 22.5788 6.4682 22.274 6.16345C21.9693 5.8587 21.556 5.6875 21.125 5.6875H4.875C4.44402 5.6875 4.0307 5.8587 3.72595 6.16345C3.4212 6.4682 3.25 6.88152 3.25 7.3125V12.1875H9.75C9.75 13.0495 10.0924 13.8761 10.7019 14.4856C11.3114 15.0951 12.138 15.4375 13 15.4375Z" fill="#A1B2ED"/>
<path d="M21.125 5.6875H4.875C3.97754 5.6875 3.25 6.41504 3.25 7.3125V18.6875C3.25 19.585 3.97754 20.3125 4.875 20.3125H21.125C22.0225 20.3125 22.75 19.585 22.75 18.6875V7.3125C22.75 6.41504 22.0225 5.6875 21.125 5.6875Z" stroke="#A1B2ED" stroke-width="1.625" stroke-linecap="round" stroke-linejoin="round"/>
<path d="M3.25 12.1875H9.75C9.75 13.0495 10.0924 13.8761 10.7019 14.4856C11.3114 15.0951 12.138 15.4375 13 15.4375C13.862 15.4375 14.6886 15.0951 15.2981 14.4856C15.9076 13.8761 16.25 13.0495 16.25 12.1875H22.75" stroke="#A1B2ED" stroke-width="1.625" stroke-linecap="round" stroke-linejoin="round"/>
<path d="M3.25 8.9375H22.75" stroke="#A1B2ED" stroke-width="1.625" stroke-linecap="round" stroke-linejoin="round"/>
</g>
<defs>
<clipPath id="clip0_354_20">
<rect width="26" height="26" fill="white"/>
</clipPath>
</defs>
</svg>
