<svg width="26" height="26" viewBox="0 0 26 26" fill="none" xmlns="http://www.w3.org/2000/svg">
<g clip-path="url(#clip0_354_33)">
<path opacity="0.2" d="M21.125 8.9375H4.875C4.65951 8.9375 4.45285 9.0231 4.30048 9.17548C4.1481 9.32785 4.0625 9.53451 4.0625 9.75V21.125C4.0625 21.3405 4.1481 21.5472 4.30048 21.6995C4.45285 21.8519 4.65951 21.9375 4.875 21.9375H21.125C21.3405 21.9375 21.5472 21.8519 21.6995 21.6995C21.8519 21.5472 21.9375 21.3405 21.9375 21.125V9.75C21.9375 9.53451 21.8519 9.32785 21.6995 9.17548C21.5472 9.0231 21.3405 8.9375 21.125 8.9375ZM13 16.25C12.5983 16.25 12.2055 16.1309 11.8715 15.9077C11.5375 15.6845 11.2771 15.3672 11.1234 14.9961C10.9696 14.6249 10.9294 14.2165 11.0078 13.8225C11.0862 13.4284 11.2796 13.0665 11.5637 12.7824C11.8478 12.4984 12.2097 12.3049 12.6037 12.2265C12.9977 12.1482 13.4062 12.1884 13.7773 12.3421C14.1485 12.4959 14.4657 12.7562 14.6889 13.0902C14.9121 13.4243 15.0312 13.817 15.0312 14.2188C15.0312 14.7575 14.8172 15.2741 14.4363 15.6551C14.0554 16.036 13.5387 16.25 13 16.25Z" fill="#A1B2ED"/>
<path d="M21.125 8.9375H4.875C4.42627 8.9375 4.0625 9.30127 4.0625 9.75V21.125C4.0625 21.5737 4.42627 21.9375 4.875 21.9375H21.125C21.5737 21.9375 21.9375 21.5737 21.9375 21.125V9.75C21.9375 9.30127 21.5737 8.9375 21.125 8.9375Z" stroke="#A1B2ED" stroke-width="1.625" stroke-linecap="round" stroke-linejoin="round"/>
<path d="M8.9375 8.9375V5.6875C8.9375 4.61006 9.36551 3.57675 10.1274 2.81488C10.8892 2.05301 11.9226 1.625 13 1.625C14.0774 1.625 15.1108 2.05301 15.8726 2.81488C16.6345 3.57675 17.0625 4.61006 17.0625 5.6875V8.9375" stroke="#A1B2ED" stroke-width="1.625" stroke-linecap="round" stroke-linejoin="round"/>
<path d="M13 16.25C14.1218 16.25 15.0312 15.3406 15.0312 14.2188C15.0312 13.0969 14.1218 12.1875 13 12.1875C11.8782 12.1875 10.9688 13.0969 10.9688 14.2188C10.9688 15.3406 11.8782 16.25 13 16.25Z" stroke="#A1B2ED" stroke-width="1.625" stroke-linecap="round" stroke-linejoin="round"/>
<path d="M13 16.25V18.6875" stroke="#A1B2ED" stroke-width="1.625" stroke-linecap="round" stroke-linejoin="round"/>
</g>
<defs>
<clipPath id="clip0_354_33">
<rect width="26" height="26" fill="white"/>
</clipPath>
</defs>
</svg>
