<svg width="32" height="32" viewBox="0 0 32 32" fill="none" xmlns="http://www.w3.org/2000/svg">
<g clip-path="url(#clip0_339_4447)">
<path opacity="0.2" d="M26.9999 9.19075C25.5661 7.83325 23.1249 7.00075 20.9999 7.00075C19.1823 6.99653 17.418 7.61403 15.9999 8.75075C14.6112 7.63736 12.8896 7.02124 11.1099 7.00075C6.49985 6.93825 2.88235 10.7883 2.99985 15.3995C3.05004 17.3763 3.49184 19.3235 4.29967 21.1284C5.1075 22.9333 6.26532 24.5601 7.7061 25.9145C8.44826 26.6139 9.43006 27.0026 10.4499 27.0007H21.4124C21.9568 27.003 22.4959 26.8931 22.9961 26.6781C23.4963 26.4631 23.9469 26.1474 24.3199 25.7507C26.3011 23.6257 26.9999 21.6008 26.9999 21.6008C24.9011 20.1595 23.9999 17.742 23.9999 15.0033C23.9999 12.7158 25.4599 10.652 26.9999 9.19325V9.19075Z" fill="#A1B2ED"/>
<path d="M26.9999 9.19075C25.5661 7.83325 23.1249 7.00075 20.9999 7.00075C19.1823 6.99653 17.418 7.61403 15.9999 8.75075C14.6112 7.63736 12.8896 7.02124 11.1099 7.00075C6.49985 6.93825 2.88235 10.7883 2.99985 15.3995C3.05004 17.3763 3.49184 19.3235 4.29967 21.1284C5.1075 22.9333 6.26532 24.5601 7.7061 25.9145C8.44826 26.6139 9.43006 27.0026 10.4499 27.0007H21.4124C21.9568 27.003 22.4959 26.8931 22.9961 26.6781C23.4963 26.4631 23.9469 26.1474 24.3199 25.7507C26.3011 23.6257 26.9999 21.6008 26.9999 21.6008C24.9011 20.1595 23.9999 17.742 23.9999 15.0033C23.9999 12.7158 25.4599 10.652 26.9999 9.19325V9.19075Z" stroke="#A1B2ED" stroke-width="2" stroke-linecap="round" stroke-linejoin="round"/>
<path d="M21 1H20.875C19.9879 0.999553 19.1258 1.29403 18.4243 1.83711C17.7228 2.38018 17.2218 3.14104 17 4" stroke="#A1B2ED" stroke-width="2" stroke-linecap="round" stroke-linejoin="round"/>
</g>
<defs>
<clipPath id="clip0_339_4447">
<rect width="32" height="32" fill="white"/>
</clipPath>
</defs>
</svg>
